<svg xmlns="http://www.w3.org/2000/svg" width="1890" height="351.44" viewBox="0 0 1890 351.44">
  <defs>
    <style>
      .a {
        opacity: 0.06;
        isolation: isolate;
      }
    </style>
  </defs>
  <title>courses-bg</title>
  <path class="a" d="M1794.26-27.05c-8.38,0-13.53,3.22-13.53,9,0,18.37,79.28,6.12,79.28,65.74,0,37.06-32.23,52.85-67,52.85-32.23,0-56.72-12.25-69.29-38.35l41.9-23.85c4.19,12.25,13.21,19,27.39,19,11.6,0,17.4-3.55,17.4-10,0-17.73-79.28-8.38-79.28-64.13,0-35.13,29.65-52.85,63.16-52.85,26.1,0,49.31,11.6,62.84,34.48l-41.25,22.24C1811.34-21.25,1804.89-27.05,1794.26-27.05ZM1597.68,34.82c6.12,16.76,20.95,22.56,38.67,22.56,13.21,0,24.49-5.16,30.94-12.25L1706,67.37c-15.79,21.91-39.64,33.19-70.25,33.19-55.11,0-89.27-37.06-89.27-85.08s34.8-85.08,85.72-85.08c47.05,0,81.85,36.42,81.85,85.08a93.64,93.64,0,0,1-1.93,19.34Zm34.16-61.55c-18.37,0-30.62,9-35.13,25.46H1666C1660.85-20,1646.34-26.73,1631.84-26.73ZM1396.27,160.5V115.39c22.56,0,33.19-7.09,40.28-26.75L1372.42-65.08h53.17l35.77,98.61,30.29-98.61h51.56l-55.11,156.3C1470.07,142.46,1441.39,162.76,1396.27,160.5ZM1187-10.05c0-23.08-14.52-33.88-32.39-33.88C1134.15-43.93,1120-32,1120-5.58V96.05h-55.84v-260.6H1120v92c10.05-13.77,28.67-22.71,53.24-22.71,37.6,0,69.62,26.81,69.62,77.06V96.05H1187ZM949.5,101.26c-37.23,0-65.52-14.15-80-44.3l48.4-27.55c4.84,14.15,15.26,22,31.64,22,13.4,0,20.1-4.09,20.1-11.54,0-20.48-91.58-9.68-91.58-74.09,0-40.58,34.25-61.06,73-61.06,30.15,0,57,13.4,72.6,39.84L975.93-29.78c-5.21-9.68-12.66-16.38-24.94-16.38-9.68,0-15.64,3.72-15.64,10.42,0,21.22,91.58,7.07,91.58,75.95C1026.93,83,989.7,101.26,949.5,101.26ZM806.16-106.47A33.85,33.85,0,0,1,772.65-140a33.85,33.85,0,0,1,33.51-33.51A33.85,33.85,0,0,1,839.67-140,33.85,33.85,0,0,1,806.16-106.47Zm-134-69.25H728V96.05H672.14ZM523.59,175.72c-38.72,0-71.11-14.52-88.23-45L483,103.12c7.07,13,17.87,23.45,42.44,23.45,26.06,0,42.07-13.4,42.07-39.84V69.62c-12.29,15.26-30.16,24.2-54.35,24.2-52.87,0-91.58-43.18-91.58-94.56s38.72-94.56,91.58-94.56c24.2,0,42.07,8.94,54.35,24.2v-19h54.35V86.74C621.88,149.29,573.11,175.72,523.59,175.72ZM522.48-43.93c-26.43,0-45,17.5-45,43.18s18.61,43.19,45,43.19,45-17.5,45-43.19S548.91-43.93,522.48-43.93ZM327.4-10.05c0-23.08-14.52-33.88-32.39-33.88-20.48,0-34.62,11.91-34.62,38.35V96.05H204.54V-90.09h55.84v17.5c10.05-13.77,28.67-22.71,53.24-22.71,37.6,0,69.62,26.81,69.62,77.06V96.05H327.4ZM29.19,25.32c7.07,19.36,24.2,26.06,44.67,26.06,15.26,0,28.3-6,35.74-14.15l44.68,25.69C136,88.23,108.49,101.26,73.13,101.26,9.46,101.26-30,58.45-30,3S10.21-95.31,69-95.31c54.35,0,94.56,42.07,94.56,98.29a108.19,108.19,0,0,1-2.23,22.34ZM68.66-45.79c-21.22,0-35.37,10.43-40.58,29.41h80C102.16-38,85.41-45.79,68.66-45.79ZM834.08,96.05H778.24V-90.09h55.84Z" transform="translate(30 175.72)"/>
</svg>
