<svg xmlns="http://www.w3.org/2000/svg" viewBox="0 0 145 19">
  <defs>
    <style>
      .a {
        fill: #2429ff;
      }
    </style>
  </defs>
  <path class="a" d="M3.85,7.76a4.4,4.4,0,0,1,2.61.86A15.76,15.76,0,0,1,8.63,11c1.95,2.46,3.76,5.09,6.64,6.6A12.35,12.35,0,0,0,25.8,18c3.14-1.29,5.13-3.8,7.17-6.38C34.34,9.88,35.62,8,37.83,7.76a5,5,0,0,1,2.39.47,9.15,9.15,0,0,1,2.61,2.46c1.5,1.81,3.5,4.66,5.88,6.3A12.33,12.33,0,0,0,58.85,18.5c3.32-.95,5.62-3.28,7.65-5.87.8-1,1.42-1.9,2-2.59A11.93,11.93,0,0,1,70,8.58c-.4.3,1.24-.69.8-.47A4.11,4.11,0,0,1,74.12,8a5.88,5.88,0,0,1,1.11.69c-.4-.3.13.13.18.17.35.35.71.69,1,1C78,11.65,79.56,14.28,81.73,16c5.8,4.79,13.58,3.28,18.19-2.24,1.68-2.07,3.05-4.49,5-5.56a4.32,4.32,0,0,1,5.09.91c2,2,3.45,4.7,5.84,6.77a12.55,12.55,0,0,0,11.59,2.63c3.63-1,6-3.71,8.19-6.56a20.19,20.19,0,0,1,2.7-3.11,4.36,4.36,0,0,1,2.83-1.08c5.13-.13,5.13-7.89,0-7.76a12.63,12.63,0,0,0-9.07,4c-2.17,2.16-3.23,4.49-5.4,6.3a4.41,4.41,0,0,1-5.18.17,22,22,0,0,1-2-2c-1-1.25-1.95-2.59-3.05-3.84A12.68,12.68,0,0,0,98.32,3.37c-2.12,1.9-3.5,4.4-5.27,6.17-1.37,1.38-3.32,2.16-5,1.38-2.17-1-3.41-3.32-5.09-5.39C81,3.15,78.54,1,75.44.35A12.53,12.53,0,0,0,65,2.5C62.74,4.23,60.93,7,59.42,8.76s-3,2.89-5.27,2.33c-1.81-.43-3.27-2.59-4.69-4.4-2-2.59-4.25-5-7.52-6.08A12.55,12.55,0,0,0,31.77,1.73C29.07,3.41,27,6.6,25.31,8.63S21.64,11.95,19.42,11s-3.72-3.8-5.66-6A13.21,13.21,0,0,0,3.85,0C-1.28-.13-1.28,7.64,3.85,7.76Z" transform="translate(0)"/>
</svg>
