<svg xmlns="http://www.w3.org/2000/svg" viewBox="0 0 98.16 35.47">
  <g>
    <path fill="#000" d="M77.55,73.75V65.88h7.87v7.87Z" transform="translate(-77.55 -38.86)"/>
    <path fill="#e4002b" d="M98.48,73.75V59.69L87.15,39.43h9.55l3.89,8.26,2.06,4.94h.1q1-2.59,2.06-4.94l3.84-8.26h9.55L106.88,59.69V73.75Z" transform="translate(-77.55 -38.86)"/>
    <path fill="#e4002b" d="M123.73,73.75V39.43h21.5v7.2h-13.1v6.24h10.46v7.2H132.13v6.48h13.78v7.2Z" transform="translate(-77.55 -38.86)"/>
    <path fill="#e4002b" d="M151.09,69.43,155.51,63a16.2,16.2,0,0,0,3.89,2.5,10.28,10.28,0,0,0,4.37,1.06,4.42,4.42,0,0,0,2.62-.67,2,2,0,0,0,.94-1.73,2.66,2.66,0,0,0-1.13-2,9.59,9.59,0,0,0-2.81-1.56A36.91,36.91,0,0,1,159.73,59a35.46,35.46,0,0,1-3.65-2.09,8.91,8.91,0,0,1-2.81-3,8.77,8.77,0,0,1-1.13-4.49,9.43,9.43,0,0,1,3.48-7.61,13.5,13.5,0,0,1,9-2.9,15.59,15.59,0,0,1,10.75,3.89l-3.55,6.86a13,13,0,0,0-3.55-2.16,10.41,10.41,0,0,0-4-.86,4.6,4.6,0,0,0-2.74.67,2.1,2.1,0,0,0-.91,1.78,2.59,2.59,0,0,0,1.13,2,9.5,9.5,0,0,0,2.81,1.51q1.68.6,3.65,1.54a32.82,32.82,0,0,1,3.65,2,8.81,8.81,0,0,1,3.94,7.51,10.09,10.09,0,0,1-3.24,7.63q-3.24,3.07-9,3.07a18.86,18.86,0,0,1-6.74-1.25A15.93,15.93,0,0,1,151.09,69.43Z" transform="translate(-77.55 -38.86)"/>
  </g>
</svg>
