<svg xmlns="http://www.w3.org/2000/svg" viewBox="0 0 327.9 163.85">
  <defs>
    <style>
      .a {
        fill: #2429ff;
      }
    </style>
  </defs>
  <title>vawes</title>
  <path class="a" d="M8.7,18a9.77,9.77,0,0,1,5.9,2,36.19,36.19,0,0,1,4.9,5.4c4.4,5.7,8.5,11.8,15,15.3a27.27,27.27,0,0,0,23.8,1.1c7.1-3,11.6-8.8,16.2-14.8,3.1-4.1,6-8.4,11-9a11.15,11.15,0,0,1,5.4,1.1c2.1,1.1,3.9,3.2,5.9,5.7,3.4,4.2,7.9,10.8,13.3,14.6A27.26,27.26,0,0,0,133,42.9c7.5-2.2,12.7-7.6,17.3-13.6,1.8-2.3,3.2-4.4,4.6-6a27.3,27.3,0,0,1,3.4-3.4c-.9.7,2.8-1.6,1.8-1.1a9.08,9.08,0,0,1,7.4-.2,13.25,13.25,0,0,1,2.5,1.6c-.9-.7.3.3.4.4.8.8,1.6,1.6,2.3,2.4,3.5,4,7.1,10.1,12,14.2,13.1,11.1,30.7,7.6,41.1-5.2,3.8-4.8,6.9-10.4,11.3-12.9a9.6,9.6,0,0,1,11.5,2.1c4.5,4.7,7.8,10.9,13.2,15.7A27.83,27.83,0,0,0,288,43c8.2-2.4,13.6-8.6,18.5-15.2a46.49,46.49,0,0,1,6.1-7.2,9.72,9.72,0,0,1,6.4-2.5c11.6-.3,11.6-18.3,0-18a28.21,28.21,0,0,0-20.5,9.2c-4.9,5-7.3,10.4-12.2,14.6a9.75,9.75,0,0,1-11.7.4,50.5,50.5,0,0,1-4.5-4.7c-2.3-2.9-4.4-6-6.9-8.9-10.8-12.5-28.7-14.1-41-2.9-4.8,4.4-7.9,10.2-11.9,14.3-3.1,3.2-7.5,5-11.4,3.2-4.9-2.3-7.7-7.7-11.5-12.5C183,7.3,177.5,2.4,170.5.8a27.76,27.76,0,0,0-23.6,5c-5.1,4-9.2,10.5-12.6,14.5-3.7,4.3-6.7,6.7-11.9,5.4-4.1-1-7.4-6-10.6-10.2-4.6-6-9.6-11.5-17-14.1A27.73,27.73,0,0,0,71.8,4C65.7,7.9,61,15.3,57.2,20c-4,4.8-8.3,7.7-13.3,5.4-5.3-2.4-8.4-8.8-12.8-14C25.3,4.4,17.8.3,8.7,0-2.9-.3-2.9,17.7,8.7,18Z" transform="translate(0)"/>
  <path class="a" d="M8.7,77.9a9.77,9.77,0,0,1,5.9,2,41,41,0,0,1,4.9,5.3c4.4,5.7,8.5,11.8,15,15.3a27.25,27.25,0,0,0,23.8,1.1c7.1-3,11.6-8.8,16.2-14.8,3.1-4.1,6-8.4,11-9a11.15,11.15,0,0,1,5.4,1.1c2.1,1.1,3.9,3.2,5.9,5.8,3.4,4.2,7.9,10.8,13.3,14.6a27.26,27.26,0,0,0,22.9,3.5c7.4-2.2,12.6-7.6,17.2-13.6,1.8-2.3,3.2-4.4,4.6-6a27.3,27.3,0,0,1,3.4-3.4c-.9.7,2.8-1.6,1.8-1.1a9.08,9.08,0,0,1,7.4-.2A13.5,13.5,0,0,1,170,80c-.9-.7.3.3.4.4.8.8,1.6,1.6,2.3,2.4,3.5,4,7.1,10.1,12,14.2,13.1,11.1,30.7,7.6,41.1-5.2,3.9-4.8,6.9-10.4,11.3-12.8a9.6,9.6,0,0,1,11.5,2.1c4.5,4.7,7.8,10.9,13.2,15.7a27.83,27.83,0,0,0,26.2,6.1c8.2-2.4,13.6-8.6,18.5-15.2a46.49,46.49,0,0,1,6.1-7.2A9.34,9.34,0,0,1,319,78c11.6-.3,11.6-18.3,0-18a29,29,0,0,0-20.5,9.2c-4.9,5-7.3,10.4-12.2,14.7a9.75,9.75,0,0,1-11.7.4,50.5,50.5,0,0,1-4.5-4.7c-2.3-2.9-4.4-6-6.9-8.8-10.8-12.4-28.7-14.1-40.9-2.8-4.8,4.4-7.9,10.2-11.9,14.3-3.1,3.2-7.5,5-11.4,3.2-4.9-2.3-7.7-7.7-11.5-12.5-4.4-5.5-9.9-10.4-16.9-12A27.76,27.76,0,0,0,147,66c-5.1,4-9.2,10.5-12.6,14.5-3.7,4.3-6.7,6.7-11.9,5.4-4.1-1-7.4-6-10.6-10.2-4.6-6-9.6-11.5-17-14.1a27.73,27.73,0,0,0-23,2.6c-6.2,3.6-10.9,11-14.7,15.7-4,4.8-8.3,7.7-13.3,5.4-5.3-2.4-8.4-8.8-12.8-14-5.8-7-13.3-11.1-22.4-11.4C-2.9,59.6-2.9,77.6,8.7,77.9Z" transform="translate(0)"/>
  <path class="a" d="M8.7,137.8a9.77,9.77,0,0,1,5.9,2,49.77,49.77,0,0,1,4.9,5.4c4.4,5.7,8.5,11.8,15,15.3a27.25,27.25,0,0,0,23.8,1.1c7.1-3,11.6-8.8,16.2-14.9,3.1-4.1,6-8.4,11-9a11.15,11.15,0,0,1,5.4,1.1c2.1,1.1,3.9,3.2,5.9,5.8,3.4,4.2,7.9,10.8,13.3,14.6a27.26,27.26,0,0,0,22.9,3.5c7.5-2.2,12.7-7.6,17.3-13.6,1.8-2.3,3.2-4.4,4.6-6a27.3,27.3,0,0,1,3.4-3.4c-.9.7,2.8-1.6,1.8-1.1a9.08,9.08,0,0,1,7.4-.2,13.5,13.5,0,0,1,2.6,1.5c-.9-.7.3.3.4.4.8.8,1.6,1.6,2.3,2.4,3.5,3.9,7.1,10.1,12,14.2,13.1,11.1,30.7,7.6,41.1-5.2,3.9-4.8,6.9-10.4,11.3-12.8a9.6,9.6,0,0,1,11.5,2.1c4.5,4.7,7.8,10.9,13.3,15.7a27.83,27.83,0,0,0,26.2,6.1c8.2-2.4,13.6-8.6,18.5-15.2a46.49,46.49,0,0,1,6.1-7.2,9.34,9.34,0,0,1,6.4-2.5c11.6-.3,11.6-18.3,0-18a29,29,0,0,0-20.5,9.2c-4.9,5-7.3,10.4-12.2,14.6a9.75,9.75,0,0,1-11.7.4c-.6-.4-4-4.1-4.5-4.7-2.3-2.9-4.4-6-6.9-8.9-10.8-12.4-28.7-14.1-40.9-2.8-4.8,4.4-7.9,10.2-11.9,14.3-3.1,3.2-7.5,5-11.4,3.2-4.9-2.3-7.7-7.7-11.5-12.5-4.4-5.5-9.9-10.4-16.9-12a27.76,27.76,0,0,0-23.6,5c-5.1,4-9.2,10.5-12.6,14.5-3.7,4.3-6.7,6.7-11.9,5.4-4.1-1-7.4-6-10.6-10.2-4.6-6-9.6-11.5-17-14.1a27.73,27.73,0,0,0-23,2.6c-6.2,3.9-10.9,11.3-14.8,15.9-4,4.8-8.3,7.7-13.3,5.4-5.3-2.4-8.4-8.8-12.8-14-5.8-6.9-13.3-11.1-22.4-11.3-11.6-.3-11.6,17.7-.1,17.9Z" transform="translate(0)"/>
</svg>
